<?xml version="1.0" encoding="UTF-8" standalone="no"?>
<!-- Created with Inkscape (http://www.inkscape.org/) -->

<svg
   version="1.1"
   id="svg1"
   width="666.66669"
   height="531.15997"
   viewBox="0 0 666.66669 531.15997"
   xmlns="http://www.w3.org/2000/svg"
   xmlns:svg="http://www.w3.org/2000/svg">
  <defs
     id="defs1" />
  <g
     id="g1">
    <g
       id="group-R5">
      <path
         id="path2"
         d="M 640,633.609 H 90 V 2213.61 H 640 V 633.609"
         style="fill:#353436;fill-opacity:1;fill-rule:nonzero;stroke:none"
         transform="matrix(0.13333333,0,0,-0.13333333,0,531.16)" />
      <path
         id="path3"
         d="M 1070,633.609 H 720 V 2193.61 h 350 V 633.609"
         style="fill:#353436;fill-opacity:1;fill-rule:nonzero;stroke:none"
         transform="matrix(0.13333333,0,0,-0.13333333,0,531.16)" />
      <path
         id="path4"
         d="M 1620,633.609 H 1180 V 2503.61 h 440 V 633.609"
         style="fill:#353436;fill-opacity:1;fill-rule:nonzero;stroke:none"
         transform="matrix(0.13333333,0,0,-0.13333333,0,531.16)" />
      <path
         id="path5"
         d="M 2330,633.609 H 1740 V 2293.61 h 590 V 633.609"
         style="fill:#353436;fill-opacity:1;fill-rule:nonzero;stroke:none"
         transform="matrix(0.13333333,0,0,-0.13333333,0,531.16)" />
      <path
         id="path6"
         d="M 2960,633.609 H 2520 V 1943.61 h 440 V 633.609"
         style="fill:#353436;fill-opacity:1;fill-rule:nonzero;stroke:none"
         transform="matrix(0.13333333,0,0,-0.13333333,0,531.16)" />
      <path
         id="path7"
         d="M 3680,603.609 H 3110 V 2153.61 h 570 V 603.609"
         style="fill:#353436;fill-opacity:1;fill-rule:nonzero;stroke:none"
         transform="matrix(0.13333333,0,0,-0.13333333,0,531.16)" />
      <path
         id="path8"
         d="M 4310,633.609 H 3850 V 2033.61 h 460 V 633.609"
         style="fill:#353436;fill-opacity:1;fill-rule:nonzero;stroke:none"
         transform="matrix(0.13333333,0,0,-0.13333333,0,531.16)" />
      <path
         id="path9"
         d="M 4900,633.609 H 4400 V 2553.61 h 500 V 633.609"
         style="fill:#353436;fill-opacity:1;fill-rule:nonzero;stroke:none"
         transform="matrix(0.13333333,0,0,-0.13333333,0,531.16)" />
      <path
         id="path10"
         d="M 640,633.609 H 90 V 2213.61 H 640 V 633.609"
         style="fill:#d7d8d3;fill-opacity:1;fill-rule:nonzero;stroke:none"
         transform="matrix(0.13333333,0,0,-0.13333333,0,531.16)" />
      <path
         id="path11"
         d="M 1070,633.609 H 720 V 2193.61 h 350 V 633.609"
         style="fill:#d7d8d3;fill-opacity:1;fill-rule:nonzero;stroke:none"
         transform="matrix(0.13333333,0,0,-0.13333333,0,531.16)" />
      <path
         id="path12"
         d="M 1620,633.609 H 1180 V 2503.61 h 440 V 633.609"
         style="fill:#d7d8d3;fill-opacity:1;fill-rule:nonzero;stroke:none"
         transform="matrix(0.13333333,0,0,-0.13333333,0,531.16)" />
      <path
         id="path13"
         d="M 2330,633.609 H 1740 V 2293.61 h 590 V 633.609"
         style="fill:#d7d8d3;fill-opacity:1;fill-rule:nonzero;stroke:none"
         transform="matrix(0.13333333,0,0,-0.13333333,0,531.16)" />
      <path
         id="path14"
         d="M 2960,633.609 H 2520 V 1943.61 h 440 V 633.609"
         style="fill:#d7d8d3;fill-opacity:1;fill-rule:nonzero;stroke:none"
         transform="matrix(0.13333333,0,0,-0.13333333,0,531.16)" />
      <path
         id="path15"
         d="M 3680,603.609 H 3110 V 2153.61 h 570 V 603.609"
         style="fill:#d7d8d3;fill-opacity:1;fill-rule:nonzero;stroke:none"
         transform="matrix(0.13333333,0,0,-0.13333333,0,531.16)" />
      <path
         id="path16"
         d="M 4310,633.609 H 3850 V 2033.61 h 460 V 633.609"
         style="fill:#d7d8d3;fill-opacity:1;fill-rule:nonzero;stroke:none"
         transform="matrix(0.13333333,0,0,-0.13333333,0,531.16)" />
      <path
         id="path17"
         d="M 4900,633.609 H 4400 V 2553.61 h 500 V 633.609"
         style="fill:#d7d8d3;fill-opacity:1;fill-rule:nonzero;stroke:none"
         transform="matrix(0.13333333,0,0,-0.13333333,0,531.16)" />
      <path
         id="path18"
         d="m 3570,2713.61 h -110.23 c -20.12,-20 -79.77,6.11 -79.77,6.11 v 53.89 h -19.2 -30.8 v -53.89 c 0,0 -48.06,-26.11 -68.17,-6.11 H 3150 v -20.14 l 102.62,-13.15 c 0,0 -3.8,-50.4 48.24,-50.4 0,0 -18.92,-126.31 -18.92,-196.31 h 78.86 78.85 c 0,70 -20.16,196.31 -20.16,196.31 52.01,0 48.69,51.06 48.69,51.06 l 101.82,12.49 v 20.14"
         style="fill:#28292a;fill-opacity:1;fill-rule:nonzero;stroke:none"
         transform="matrix(0.13333333,0,0,-0.13333333,0,531.16)" />
      <path
         id="path19"
         d="m 3480,2403.61 h -250 v 30 h 250 v -30"
         style="fill:#28292a;fill-opacity:1;fill-rule:nonzero;stroke:none"
         transform="matrix(0.13333333,0,0,-0.13333333,0,531.16)" />
      <path
         id="path20"
         d="m 3480,2213.61 h -250 v 60 h 250 v -60"
         style="fill:#28292a;fill-opacity:1;fill-rule:nonzero;stroke:none"
         transform="matrix(0.13333333,0,0,-0.13333333,0,531.16)" />
      <path
         id="path21"
         d="m 3460,2143.61 h -210 v 50 h 210 v -50"
         style="fill:#28292a;fill-opacity:1;fill-rule:nonzero;stroke:none"
         transform="matrix(0.13333333,0,0,-0.13333333,0,531.16)" />
      <path
         id="path22"
         d="m 3440,1013.61 h -160 v 1130 h 160 v -1130"
         style="fill:#28292a;fill-opacity:1;fill-rule:nonzero;stroke:none"
         transform="matrix(0.13333333,0,0,-0.13333333,0,531.16)" />
      <path
         id="path23"
         d="m 3400,2113.61 h -70 v 320 h 70 v -320"
         style="fill:#28292a;fill-opacity:1;fill-rule:nonzero;stroke:none"
         transform="matrix(0.13333333,0,0,-0.13333333,0,531.16)" />
      <path
         id="path24"
         d="m 3671.05,1163.61 -40.44,94.95 h -547.99 l -39.81,-94.95 h 628.24"
         style="fill:#28292a;fill-opacity:1;fill-rule:nonzero;stroke:none"
         transform="matrix(0.13333333,0,0,-0.13333333,0,531.16)" />
      <path
         id="path25"
         d="m 3120,593.609 h -50 v 600.001 h 50 V 593.609"
         style="fill:#28292a;fill-opacity:1;fill-rule:nonzero;stroke:none"
         transform="matrix(0.13333333,0,0,-0.13333333,0,531.16)" />
      <path
         id="path26"
         d="m 3200,593.609 h -50 v 600.001 h 50 V 593.609"
         style="fill:#28292a;fill-opacity:1;fill-rule:nonzero;stroke:none"
         transform="matrix(0.13333333,0,0,-0.13333333,0,531.16)" />
      <path
         id="path27"
         d="m 3570,593.609 h -50 v 600.001 h 50 V 593.609"
         style="fill:#28292a;fill-opacity:1;fill-rule:nonzero;stroke:none"
         transform="matrix(0.13333333,0,0,-0.13333333,0,531.16)" />
      <path
         id="path28"
         d="m 3650,593.609 h -60 v 600.001 h 60 V 593.609"
         style="fill:#28292a;fill-opacity:1;fill-rule:nonzero;stroke:none"
         transform="matrix(0.13333333,0,0,-0.13333333,0,531.16)" />
      <path
         id="path29"
         d="m 3460,593.609 h -210 v 600.001 h 210 V 593.609"
         style="fill:#28292a;fill-opacity:1;fill-rule:nonzero;stroke:none"
         transform="matrix(0.13333333,0,0,-0.13333333,0,531.16)" />
      <path
         id="path30"
         d="m 4070,1843.61 v 113.13 l -130,193.35 v -82.32 l 45.89,-84.16 H 3940 v -140 h 130"
         style="fill:#626d66;fill-opacity:1;fill-rule:nonzero;stroke:none"
         transform="matrix(0.13333333,0,0,-0.13333333,0,531.16)" />
      <path
         id="path31"
         d="m 4420,1843.61 v 113.13 l 130,193.35 v -82.32 l -51.94,-84.16 H 4550 v -140 h -130"
         style="fill:#626d66;fill-opacity:1;fill-rule:nonzero;stroke:none"
         transform="matrix(0.13333333,0,0,-0.13333333,0,531.16)" />
      <path
         id="path32"
         d="m 4249.38,2122.87 -39.37,0.41 v -58.23 l -50,2.72 v 115.25 l -30,-31.98 v -307.43 h 119.37 v 279.26"
         style="fill:#626d66;fill-opacity:1;fill-rule:nonzero;stroke:none"
         transform="matrix(0.13333333,0,0,-0.13333333,0,531.16)" />
      <path
         id="path33"
         d="m 4229.37,2122.87 39.37,0.41 v -58.23 l 50,2.72 v 115.25 l 30,-31.98 v -307.43 h -119.37 v 279.26"
         style="fill:#626d66;fill-opacity:1;fill-rule:nonzero;stroke:none"
         transform="matrix(0.13333333,0,0,-0.13333333,0,531.16)" />
      <path
         id="path34"
         d="m 4720,1423.61 h -940 v 200 h 940 v -200"
         style="fill:#626d66;fill-opacity:1;fill-rule:nonzero;stroke:none"
         transform="matrix(0.13333333,0,0,-0.13333333,0,531.16)" />
      <path
         id="path35"
         d="M 4860,1813.61 H 3630 l -20,80 h 1270 l -20,-80"
         style="fill:#28292a;fill-opacity:1;fill-rule:nonzero;stroke:none"
         transform="matrix(0.13333333,0,0,-0.13333333,0,531.16)" />
      <path
         id="path36"
         d="m 3630,1653.61 h 1230 l 20,-80 H 3610 l 20,80"
         style="fill:#28292a;fill-opacity:1;fill-rule:nonzero;stroke:none"
         transform="matrix(0.13333333,0,0,-0.13333333,0,531.16)" />
      <path
         id="path37"
         d="m 4860.02,1383.61 h -1230 l -20,80 h 1270 l -20,-80"
         style="fill:#28292a;fill-opacity:1;fill-rule:nonzero;stroke:none"
         transform="matrix(0.13333333,0,0,-0.13333333,0,531.16)" />
      <path
         id="path38"
         d="M 4830,1623.61 H 3670 v 220 h 1160 v -220"
         style="fill:#28292a;fill-opacity:1;fill-rule:nonzero;stroke:none"
         transform="matrix(0.13333333,0,0,-0.13333333,0,531.16)" />
      <path
         id="path39"
         d="M 3840,673.609 H 3730 V 1693.61 h 110 V 673.609"
         style="fill:#28292a;fill-opacity:1;fill-rule:nonzero;stroke:none"
         transform="matrix(0.13333333,0,0,-0.13333333,0,531.16)" />
      <path
         id="path40"
         d="M 4070,673.609 H 3960 V 1693.61 h 110 V 673.609"
         style="fill:#28292a;fill-opacity:1;fill-rule:nonzero;stroke:none"
         transform="matrix(0.13333333,0,0,-0.13333333,0,531.16)" />
      <path
         id="path41"
         d="M 4300,673.609 H 4190 V 1693.61 h 110 V 673.609"
         style="fill:#28292a;fill-opacity:1;fill-rule:nonzero;stroke:none"
         transform="matrix(0.13333333,0,0,-0.13333333,0,531.16)" />
      <path
         id="path42"
         d="M 4530,673.609 H 4420 V 1693.61 h 110 V 673.609"
         style="fill:#28292a;fill-opacity:1;fill-rule:nonzero;stroke:none"
         transform="matrix(0.13333333,0,0,-0.13333333,0,531.16)" />
      <path
         id="path43"
         d="M 4760,673.609 H 4650 V 1693.61 h 110 V 673.609"
         style="fill:#28292a;fill-opacity:1;fill-rule:nonzero;stroke:none"
         transform="matrix(0.13333333,0,0,-0.13333333,0,531.16)" />
      <g
         id="g43"
         aria-label="BERLINSKYLINE"
         transform="matrix(1.3333333,0,0,1.3333333,60.330267,36.442667)" />
      <path
         id="path46"
         d="m 1140,2483.61 c -0.12,219.32 -87.86,233.59 -195.137,233.59 -107.281,0 -197.808,-14.27 -197.929,-233.59 H 1140"
         style="fill:#28292a;fill-opacity:1;fill-rule:nonzero;stroke:none"
         transform="matrix(0.13333333,0,0,-0.13333333,0,531.16)" />
      <path
         id="path47"
         d="M 1140,653.609 H 676.465 L 746.934,2483.61 H 1140 V 653.609"
         style="fill:#626d66;fill-opacity:1;fill-rule:nonzero;stroke:none"
         transform="matrix(0.13333333,0,0,-0.13333333,0,531.16)" />
      <path
         id="path48"
         d="M 1140,653.609 H 676.465 L 989.543,2483.61 H 1140 V 653.609"
         style="fill:#4d4f47;fill-opacity:1;fill-rule:nonzero;stroke:none"
         transform="matrix(0.13333333,0,0,-0.13333333,0,531.16)" />
      <path
         id="path49"
         d="m 2280,2483.61 c -0.12,219.32 -87.86,233.59 -195.14,233.59 -107.28,0 -197.8,-14.27 -197.93,-233.59 H 2280"
         style="fill:#28292a;fill-opacity:1;fill-rule:nonzero;stroke:none"
         transform="matrix(0.13333333,0,0,-0.13333333,0,531.16)" />
      <path
         id="path50"
         d="m 2280,653.609 h -463.54 l 70.47,1830.001 H 2280 V 653.609"
         style="fill:#626d66;fill-opacity:1;fill-rule:nonzero;stroke:none"
         transform="matrix(0.13333333,0,0,-0.13333333,0,531.16)" />
      <path
         id="path51"
         d="M 2280,653.609 H 1816.46 L 2129.54,2483.61 H 2280 V 653.609"
         style="fill:#4d4f47;fill-opacity:1;fill-rule:nonzero;stroke:none"
         transform="matrix(0.13333333,0,0,-0.13333333,0,531.16)" />
      <path
         id="path52"
         d="m 3059.71,2575.33 c 0,-82.57 -66.94,-149.5 -149.5,-149.5 -82.55,0 -149.49,66.93 -149.49,149.5 0,82.55 66.94,149.49 149.49,149.49 82.56,0 149.5,-66.94 149.5,-149.49"
         style="fill:#28292a;fill-opacity:1;fill-rule:nonzero;stroke:none"
         transform="matrix(0.13333333,0,0,-0.13333333,0,531.16)" />
      <path
         id="path53"
         d="m 2970,2503.61 h -120 v 270 h 120 v -270"
         style="fill:#28292a;fill-opacity:1;fill-rule:nonzero;stroke:none"
         transform="matrix(0.13333333,0,0,-0.13333333,0,531.16)" />
      <path
         id="path54"
         d="m 2990,2753.61 h -160 v 40 h 160 v -40"
         style="fill:#28292a;fill-opacity:1;fill-rule:nonzero;stroke:none"
         transform="matrix(0.13333333,0,0,-0.13333333,0,531.16)" />
      <path
         id="path55"
         d="m 2990,2373.61 h -160 v 40 h 160 v -40"
         style="fill:#28292a;fill-opacity:1;fill-rule:nonzero;stroke:none"
         transform="matrix(0.13333333,0,0,-0.13333333,0,531.16)" />
      <path
         id="path56"
         d="m 2990,1973.61 h -160 v 40 h 160 v -40"
         style="fill:#28292a;fill-opacity:1;fill-rule:nonzero;stroke:none"
         transform="matrix(0.13333333,0,0,-0.13333333,0,531.16)" />
      <path
         id="path57"
         d="m 2990,1463.61 h -160 v 40 h 160 v -40"
         style="fill:#28292a;fill-opacity:1;fill-rule:nonzero;stroke:none"
         transform="matrix(0.13333333,0,0,-0.13333333,0,531.16)" />
      <path
         id="path58"
         d="M 2970,633.609 H 2860 V 2453.61 h 110 V 633.609"
         style="fill:#28292a;fill-opacity:1;fill-rule:nonzero;stroke:none"
         transform="matrix(0.13333333,0,0,-0.13333333,0,531.16)" />
      <path
         id="path59"
         d="m 2930,2773.61 h -40 v 620 h 40 v -620"
         style="fill:#28292a;fill-opacity:1;fill-rule:nonzero;stroke:none"
         transform="matrix(0.13333333,0,0,-0.13333333,0,531.16)" />
      <path
         id="path60"
         d="M 640,693.609 H 270 V 1243.61 H 640 V 693.609"
         style="fill:#28292a;fill-opacity:1;fill-rule:nonzero;stroke:none"
         transform="matrix(0.13333333,0,0,-0.13333333,0,531.16)" />
      <path
         id="path61"
         d="M 610,1303.61 H 290 v 230 h 320 v -230"
         style="fill:#28292a;fill-opacity:1;fill-rule:nonzero;stroke:none"
         transform="matrix(0.13333333,0,0,-0.13333333,0,531.16)" />
      <path
         id="path62"
         d="m 641.262,1233.59 40.547,106.88 H 220 l 40.551,-106.88 h 380.711"
         style="fill:#28292a;fill-opacity:1;fill-rule:nonzero;stroke:none"
         transform="matrix(0.13333333,0,0,-0.13333333,0,531.16)" />
      <path
         id="path63"
         d="m 299.254,1586.34 -32.316,-106.87 h 367.933 l -32.308,106.87 H 299.254"
         style="fill:#28292a;fill-opacity:1;fill-rule:nonzero;stroke:none"
         transform="matrix(0.13333333,0,0,-0.13333333,0,531.16)" />
      <path
         id="path64"
         d="m 450,1533.61 h -20 v 200 h 20 v -200"
         style="fill:#28292a;fill-opacity:1;fill-rule:nonzero;stroke:none"
         transform="matrix(0.13333333,0,0,-0.13333333,0,531.16)" />
      <path
         id="path65"
         d="M 540,1643.61 H 430 v 70 h 110 v -70"
         style="fill:#28292a;fill-opacity:1;fill-rule:nonzero;stroke:none"
         transform="matrix(0.13333333,0,0,-0.13333333,0,531.16)" />
      <path
         id="path66"
         d="m 2760,693.609 h -390 v 550.001 h 390 V 693.609"
         style="fill:#28292a;fill-opacity:1;fill-rule:nonzero;stroke:none"
         transform="matrix(0.13333333,0,0,-0.13333333,0,531.16)" />
      <path
         id="path67"
         d="m 2720,1303.61 h -310 v 230 h 310 v -230"
         style="fill:#28292a;fill-opacity:1;fill-rule:nonzero;stroke:none"
         transform="matrix(0.13333333,0,0,-0.13333333,0,531.16)" />
      <path
         id="path68"
         d="m 2757.88,1233.59 40.56,106.88 h -461.82 l 40.56,-106.88 h 380.7"
         style="fill:#28292a;fill-opacity:1;fill-rule:nonzero;stroke:none"
         transform="matrix(0.13333333,0,0,-0.13333333,0,531.16)" />
      <path
         id="path69"
         d="m 2415.89,1586.34 -32.33,-106.87 h 367.94 l -32.31,106.87 h -303.3"
         style="fill:#28292a;fill-opacity:1;fill-rule:nonzero;stroke:none"
         transform="matrix(0.13333333,0,0,-0.13333333,0,531.16)" />
      <path
         id="path70"
         d="m 2570,1533.61 h -20 v 200 h 20 v -200"
         style="fill:#28292a;fill-opacity:1;fill-rule:nonzero;stroke:none"
         transform="matrix(0.13333333,0,0,-0.13333333,0,531.16)" />
      <path
         id="path71"
         d="m 2640,1643.61 h -90 v 70 h 90 v -70"
         style="fill:#28292a;fill-opacity:1;fill-rule:nonzero;stroke:none"
         transform="matrix(0.13333333,0,0,-0.13333333,0,531.16)" />
      <path
         id="path72"
         d="M 2460,1353.61 H 560 v 90 h 1900 v -90"
         style="fill:#28292a;fill-opacity:1;fill-rule:nonzero;stroke:none"
         transform="matrix(0.13333333,0,0,-0.13333333,0,531.16)" />
      <path
         id="path73"
         d="m 1874.51,1405.39 c 0.13,2.02 0.31,3.99 0.31,6.04 0,58.45 -47.39,105.82 -105.83,105.82 h -519.54 c -58.44,0 -105.83,-47.37 -105.83,-105.82 0,-2.05 0.18,-4.02 0.31,-6.04 h 730.58"
         style="fill:#28292a;fill-opacity:1;fill-rule:nonzero;stroke:none"
         transform="matrix(0.13333333,0,0,-0.13333333,0,531.16)" />
      <path
         id="path74"
         d="m 1777.36,1479.47 c -2.02,146.44 -121.2,264.56 -268.14,264.56 -146.95,0 -266.11,-118.12 -268.15,-264.56 h 536.29"
         style="fill:#28292a;fill-opacity:1;fill-rule:nonzero;stroke:none"
         transform="matrix(0.13333333,0,0,-0.13333333,0,531.16)" />
      <path
         id="path75"
         d="m 768.609,1421.05 c -2.933,45.83 -16.597,80.55 -33.097,80.55 -16.508,0 -30.18,-34.72 -33.11,-80.55 h 66.207"
         style="fill:#28292a;fill-opacity:1;fill-rule:nonzero;stroke:none"
         transform="matrix(0.13333333,0,0,-0.13333333,0,531.16)" />
      <path
         id="path76"
         d="m 876.52,1421.05 c -2.926,45.83 -16.594,80.55 -33.09,80.55 -16.52,0 -30.172,-34.72 -33.114,-80.55 h 66.204"
         style="fill:#28292a;fill-opacity:1;fill-rule:nonzero;stroke:none"
         transform="matrix(0.13333333,0,0,-0.13333333,0,531.16)" />
      <path
         id="path77"
         d="m 984.438,1421.05 c -2.922,45.83 -16.59,80.55 -33.09,80.55 -16.52,0 -30.176,-34.72 -33.11,-80.55 h 66.2"
         style="fill:#28292a;fill-opacity:1;fill-rule:nonzero;stroke:none"
         transform="matrix(0.13333333,0,0,-0.13333333,0,531.16)" />
      <path
         id="path78"
         d="m 1092.36,1421.05 c -2.94,45.83 -16.59,80.55 -33.09,80.55 -16.52,0 -30.18,-34.72 -33.11,-80.55 h 66.2"
         style="fill:#28292a;fill-opacity:1;fill-rule:nonzero;stroke:none"
         transform="matrix(0.13333333,0,0,-0.13333333,0,531.16)" />
      <path
         id="path79"
         d="m 2012.88,1421.05 c -2.94,45.83 -16.6,80.55 -33.1,80.55 -16.51,0 -30.18,-34.72 -33.11,-80.55 h 66.21"
         style="fill:#28292a;fill-opacity:1;fill-rule:nonzero;stroke:none"
         transform="matrix(0.13333333,0,0,-0.13333333,0,531.16)" />
      <path
         id="path80"
         d="m 2120.79,1421.05 c -2.93,45.83 -16.59,80.55 -33.09,80.55 -16.52,0 -30.17,-34.72 -33.11,-80.55 h 66.2"
         style="fill:#28292a;fill-opacity:1;fill-rule:nonzero;stroke:none"
         transform="matrix(0.13333333,0,0,-0.13333333,0,531.16)" />
      <path
         id="path81"
         d="m 2228.7,1421.05 c -2.92,45.83 -16.58,80.55 -33.08,80.55 -16.53,0 -30.17,-34.72 -33.11,-80.55 h 66.19"
         style="fill:#28292a;fill-opacity:1;fill-rule:nonzero;stroke:none"
         transform="matrix(0.13333333,0,0,-0.13333333,0,531.16)" />
      <path
         id="path82"
         d="m 2336.62,1421.05 c -2.93,45.83 -16.58,80.55 -33.08,80.55 -16.53,0 -30.17,-34.72 -33.11,-80.55 h 66.19"
         style="fill:#28292a;fill-opacity:1;fill-rule:nonzero;stroke:none"
         transform="matrix(0.13333333,0,0,-0.13333333,0,531.16)" />
      <path
         id="path83"
         d="m 2320,830.629 c 0,-14.918 -12.1,-27.02 -27.03,-27.02 h -5.94 c -14.93,0 -27.03,12.102 -27.03,27.02 v 265.951 c 0,14.93 12.1,27.03 27.03,27.03 h 5.94 c 14.93,0 27.03,-12.1 27.03,-27.03 z m -120,0 c 0,-14.918 -12.1,-27.02 -27.03,-27.02 h -5.94 c -14.93,0 -27.03,12.102 -27.03,27.02 v 265.951 c 0,14.93 12.1,27.03 27.03,27.03 h 5.94 c 14.93,0 27.03,-12.1 27.03,-27.03 z m -110,0 c 0,-14.918 -12.1,-27.02 -27.03,-27.02 h -5.94 c -14.93,0 -27.03,12.102 -27.03,27.02 v 265.951 c 0,14.93 12.1,27.03 27.03,27.03 h 5.94 c 14.93,0 27.03,-12.1 27.03,-27.03 z m -410,17.351 c 0,-14.929 -9.7,-24.371 -24.65,-24.371 h -3.64 c -14.93,0 -31.71,9.442 -31.71,24.371 v 253.82 c 0,14.92 16.78,21.81 31.71,21.81 h 3.64 c 14.95,0 24.65,-6.89 24.65,-21.81 z m -110,0 c 0,-14.929 -15.15,-24.371 -30.1,-24.371 h -3.65 c -14.92,0 -26.25,9.442 -26.25,24.371 v 253.82 c 0,14.92 11.33,21.81 26.25,21.81 h 3.65 c 14.95,0 30.1,-6.89 30.1,-21.81 z m -120,0.27 c 0,-12.461 -12.02,-24.641 -24.38,-24.641 h -9.42 c -12.36,0 -26.2,12.18 -26.2,24.641 v 252.83 c 0,12.47 13.84,22.53 26.2,22.53 h 9.42 c 12.36,0 24.38,-10.06 24.38,-22.53 z m -480,0.359 c 0,-13.808 -11.191,-25 -25,-25 v 0 c -13.809,0 -25,11.192 -25,25 v 250.001 c 0,13.8 11.191,25 25,25 v 0 c 13.809,0 25,-11.2 25,-25 z M 850,847.98 c 0,-14.929 -7.109,-24.371 -22.055,-24.371 h -3.648 c -14.934,0 -24.297,9.442 -24.297,24.371 v 253.82 c 0,14.92 9.363,21.81 24.297,21.81 h 3.648 c 14.946,0 22.055,-6.89 22.055,-21.81 z m -110,0 c 0,-14.929 -12.559,-24.371 -27.504,-24.371 h -3.648 c -14.93,0 -28.848,9.442 -28.848,24.371 v 253.82 c 0,14.92 13.918,21.81 28.848,21.81 h 3.648 c 14.945,0 27.504,-6.89 27.504,-21.81 z M 580,1243.61 V 693.609 H 2430 V 1243.61 H 580"
         style="fill:#28292a;fill-opacity:1;fill-rule:nonzero;stroke:none"
         transform="matrix(0.13333333,0,0,-0.13333333,0,531.16)" />
      <path
         id="path84"
         d="M 5000,573.609 H 0 v 120 h 5000 v -120"
         style="fill:#28292a;fill-opacity:1;fill-rule:nonzero;stroke:none"
         transform="matrix(0.13333333,0,0,-0.13333333,0,531.16)" />
      <path
         id="path85"
         d="m 4531.31,2840 c 0.1,1.37 0.21,2.72 0.21,4.11 0,34.05 -27.59,61.64 -61.64,61.64 -5.62,0 -11.03,-0.81 -16.21,-2.22 -18.59,26.08 -49.01,43.14 -83.47,43.14 -15.04,0 -29.27,-3.31 -42.13,-9.13 -26.07,29.82 -64.28,48.74 -107,48.74 -40.21,0 -76.46,-16.78 -102.32,-43.63 -8.97,2.57 -18.41,4.02 -28.19,4.02 -34.66,0 -65.25,-17.24 -83.8,-43.58 -5.67,1.72 -11.67,2.66 -17.89,2.66 -34.05,0 -61.65,-27.59 -61.65,-61.64 0,-1.39 0.11,-2.74 0.21,-4.11 h 603.88"
         style="fill:#28292a;fill-opacity:1;fill-rule:nonzero;stroke:none"
         transform="matrix(0.13333333,0,0,-0.13333333,0,531.16)" />
      <path
         id="path86"
         d="m 584.40132,40.889346 c 0,11.534666 -9.35067,20.884 -20.884,20.884 -11.53467,0 -20.884,-9.349334 -20.884,-20.884 0,-11.534666 9.34933,-20.883999 20.884,-20.883999 11.53333,0 20.884,9.349333 20.884,20.883999"
         style="fill:#28292a;fill-opacity:1;fill-rule:nonzero;stroke:none;stroke-width:0.133333" />
      <path
         id="path87"
         d="m 2012.8,3115.36 c -5.32,24.79 -27.36,43.39 -53.75,43.39 -4.85,0 -9.53,-0.69 -14.01,-1.87 -14.41,50.53 -60.83,87.55 -115.98,87.55 -55.15,0 -101.56,-37.03 -115.97,-87.55 -4.49,1.18 -9.17,1.87 -14.04,1.87 -26.39,0 -48.42,-18.6 -53.75,-43.39 h 367.5"
         style="fill:#28292a;fill-opacity:1;fill-rule:nonzero;stroke:none"
         transform="matrix(0.13333333,0,0,-0.13333333,0,531.16)" />
      <path
         id="path115"
         d="m 2452.91,60.6914 c -0.02,0.0195 -0.02,0.0469 -0.02,0.0899 0,-0.043 0,-0.0704 0.02,-0.0899"
         style="fill:#28292a;fill-opacity:1;fill-rule:nonzero;stroke:none"
         transform="matrix(0.13333333,0,0,-0.13333333,0,531.16)" />
      <path
         id="path116"
         d="m 2453.73,55.5313 v 0 c -0.29,1.457 -0.55,2.9179 -0.72,4.3593 0.17,-1.4609 0.43,-2.9218 0.72,-4.3593"
         style="fill:#28292a;fill-opacity:1;fill-rule:nonzero;stroke:none"
         transform="matrix(0.13333333,0,0,-0.13333333,0,531.16)" />
      <path
         id="path117"
         d="m 2459.06,40.5391 c -0.04,0.0703 -0.06,0.1406 -0.1,0.2109 0.04,-0.0703 0.06,-0.1406 0.1,-0.2109"
         style="fill:#28292a;fill-opacity:1;fill-rule:nonzero;stroke:none"
         transform="matrix(0.13333333,0,0,-0.13333333,0,531.16)" />
      <path
         id="path118"
         d="m 2458.55,41.5391 c -0.13,0.2695 -0.27,0.5507 -0.41,0.832 0.14,-0.3008 0.28,-0.5625 0.41,-0.832"
         style="fill:#28292a;fill-opacity:1;fill-rule:nonzero;stroke:none"
         transform="matrix(0.13333333,0,0,-0.13333333,0,531.16)" />
      <path
         id="path119"
         d="m 2455.21,49.75 c 0.81,-2.4883 1.74,-4.8984 2.86,-7.2109 -1.14,2.3593 -2.05,4.7695 -2.84,7.2109 h -0.02"
         style="fill:#28292a;fill-opacity:1;fill-rule:nonzero;stroke:none"
         transform="matrix(0.13333333,0,0,-0.13333333,0,531.16)" />
    </g>
  </g>
</svg>
