<svg width="34" height="34" viewBox="0 0 34 34" fill="none" xmlns="http://www.w3.org/2000/svg">
<g clip-path="url(#clip0_3547_8771)">
<path fill-rule="evenodd" clip-rule="evenodd" d="M16.4185 28.4004C15.4686 28.6372 14.4733 28.7631 13.4481 28.7631C6.81715 28.7631 1.44172 23.4965 1.44172 16.9999C1.44172 10.5032 6.81715 5.23663 13.4481 5.23663C14.4733 5.23663 15.4686 5.36252 16.4185 5.5994C11.6328 7.26445 8.20588 11.7401 8.20588 16.9999C8.20588 22.2597 11.6328 26.7353 16.4185 28.4004ZM16.9993 28.5865C15.8746 28.917 14.6825 29.0945 13.4481 29.0945C6.63037 29.0945 1.10352 23.6796 1.10352 16.9999C1.10352 10.3202 6.63037 4.90527 13.4481 4.90527C14.6825 4.90527 15.8746 5.08279 16.9993 5.41321C16.8036 5.47068 16.61 5.53281 16.4185 5.5994C21.6128 6.89459 25.4545 11.5077 25.4545 16.9999C25.4545 22.4921 21.6128 27.1052 16.4185 28.4004C16.61 28.4669 16.8036 28.5291 16.9993 28.5865ZM16.9993 28.5865C18.1239 28.917 19.316 29.0945 20.5505 29.0945C27.3682 29.0945 32.8951 23.6796 32.8951 16.9999C32.8951 10.3202 27.3682 4.90527 20.5505 4.90527C19.316 4.90527 18.1239 5.08279 16.9993 5.41321C22.086 6.90762 25.7927 11.5296 25.7927 16.9999C25.7927 22.4701 22.086 27.0921 16.9993 28.5865Z" fill="white"/>
</g>
<defs>
<clipPath id="clip0_3547_8771">
<rect width="34" height="34" fill="white"/>
</clipPath>
</defs>
</svg>
